<svg width="43" height="43" viewBox="0 0 43 43" fill="none" xmlns="http://www.w3.org/2000/svg">
<path d="M41.4602 17.7175L24.6685 1.56752C24.2897 1.19777 23.8104 0.899028 23.2656 0.693104C22.7209 0.487179 22.1244 0.379263 21.5198 0.377227C20.9151 0.37519 20.3175 0.479086 19.7705 0.681334C19.2235 0.883582 18.741 1.17908 18.3581 1.54627L1.53936 17.7175C0.540764 18.6691 -0.00498694 19.8636 -0.00439405 21.0963V37.31C0.000608724 38.7178 0.715568 40.0668 1.98426 41.0622C3.25296 42.0576 4.97224 42.6186 6.76644 42.6225H36.2331C38.0273 42.6186 39.7466 42.0576 41.0153 41.0622C42.284 40.0668 42.9989 38.7178 43.0039 37.31V21.0963C43.0045 19.8636 42.4588 18.6691 41.4602 17.7175ZM16.0831 40.4975V28.81C16.0831 27.9646 16.5111 27.1539 17.273 26.5561C18.0348 25.9584 19.0682 25.6225 20.1456 25.6225H22.8539C23.9314 25.6225 24.9647 25.9584 25.7266 26.5561C26.4884 27.1539 26.9164 27.9646 26.9164 28.81V40.4975H16.0831ZM40.2956 37.31C40.2885 38.1537 39.8582 38.9612 39.0979 39.5578C38.3376 40.1543 37.3084 40.492 36.2331 40.4975H29.6248V28.81C29.6248 27.4011 28.9114 26.0498 27.6416 25.0535C26.3719 24.0572 24.6497 23.4975 22.8539 23.4975H20.1456C18.3499 23.4975 16.6277 24.0572 15.3579 25.0535C14.0881 26.0498 13.3748 27.4011 13.3748 28.81V40.4975H6.76644C5.69119 40.492 4.66199 40.1543 3.90166 39.5578C3.14133 38.9612 2.71104 38.1537 2.70394 37.31V21.0963C2.69771 20.3592 3.02388 19.6441 3.62477 19.0775L20.4706 2.90628C20.5897 2.7803 20.7449 2.6781 20.9237 2.60795C21.1025 2.53781 21.2999 2.50169 21.4998 2.50253C21.7039 2.50003 21.9058 2.53529 22.0893 2.60543C22.2729 2.67558 22.4327 2.77864 22.556 2.90628L39.3748 19.0775C39.9757 19.6441 40.3018 20.3592 40.2956 21.0963V37.31Z" fill="black"/>
</svg>
