<svg width="66" height="60" viewBox="0 0 66 60" fill="none" xmlns="http://www.w3.org/2000/svg">
<path d="M56.3287 8.77903C51.7127 4.58591 45.8321 1.73089 39.4306 0.575002C33.0292 -0.580889 26.3943 0.0142624 20.365 2.2852C14.3357 4.55613 9.18277 8.40086 5.55785 13.3332C1.93292 18.2655 -0.00122183 24.064 5.79079e-07 29.9953C-5.29483e-07 37.9504 3.47621 45.5799 9.66437 51.2065C15.8525 56.833 24.2461 59.996 32.9997 60C37.3313 60.0001 41.6212 59.2307 45.6279 57.7349C49.621 56.2022 53.2536 53.9878 56.3287 51.2115C59.3949 48.4255 61.8271 45.1179 63.4865 41.4776C65.1459 37.8373 66 33.9356 66 29.9953C66 26.055 65.1459 22.1532 63.4865 18.5129C61.8271 14.8726 59.3949 11.565 56.3287 8.77903ZM54.0025 49.0672C49.2506 53.4045 43.0152 56.142 36.3229 56.8289V37.017H42.5706C43.4519 37.017 44.2972 36.6988 44.9204 36.1324C45.5437 35.5661 45.8938 34.7979 45.8938 33.9969C45.8938 33.1959 45.5437 32.4277 44.9204 31.8614C44.2972 31.295 43.4519 30.9768 42.5706 30.9768H36.3229V22.7017C36.3229 21.9007 36.673 21.1326 37.2962 20.5662C37.9195 19.9998 38.7647 19.6816 39.6461 19.6816H43.634C44.5154 19.6816 45.3606 19.3634 45.9839 18.797C46.6071 18.2307 46.9572 17.4625 46.9572 16.6615C46.9572 15.8605 46.6071 15.0924 45.9839 14.526C45.3606 13.9596 44.5154 13.6414 43.634 13.6414H37.9845C35.7811 13.6414 33.6679 14.4369 32.1098 15.8528C30.5517 17.2688 29.6764 19.1892 29.6764 21.1917V30.9768H23.462C22.5806 30.9768 21.7353 31.295 21.1121 31.8614C20.4889 32.4277 20.1388 33.1959 20.1388 33.9969C20.1388 34.7979 20.4889 35.5661 21.1121 36.1324C21.7353 36.6988 22.5806 37.017 23.462 37.017H29.6764V56.8289C23.5048 56.189 17.7104 53.8032 13.1116 50.0085C8.51285 46.2138 5.34213 41.2019 4.04736 35.6809C2.75259 30.1598 3.39919 24.4086 5.89584 19.2396C8.39249 14.0706 12.613 9.74511 17.9612 6.87401C23.3094 4.00292 29.5151 2.73138 35.7015 3.23901C41.888 3.74664 47.7426 6.00777 52.4385 9.70302C57.1343 13.3983 60.434 18.3409 61.8715 23.8327C63.309 29.3245 62.8116 35.0879 60.4495 40.3089C58.9422 43.5789 56.753 46.553 54.0025 49.0672Z" fill="black"/>
</svg>
