<svg width="62" height="58" viewBox="0 0 62 58" fill="none" xmlns="http://www.w3.org/2000/svg">
<path d="M42.8066 20.3906C38.5684 16.1426 35.0566 15.4629 31.666 15.4062H31.5449C23.916 15.4062 16.7109 21.2969 16.7109 29.4531C16.7109 38.0059 24.9453 42.9902 31.4844 42.9902H31.5449C35.1777 42.9902 39.5977 42.3672 43.4727 37.1562H28.5781V22.7129L60.2441 22.8262C60.5469 24.2988 61.0918 27.9805 61.0918 29.9062C61.0918 46.2754 49.3457 57.9434 31.2422 57.9434C14.0469 57.9434 0.0605469 45.1426 0.0605469 29.1699C0.0605469 13.1973 14.0469 0.453125 31.2422 0.453125C39.6582 0.453125 48.6797 3.56836 54.3711 10.6484L42.8066 20.3906ZM31.4844 25.6582V34.3809H47.4082C46.6816 38.0625 42.5039 45.4258 31.4844 45.4258C21.8574 45.4258 14.1074 38.0625 14.1074 29.2832C14.1074 20.4473 22.0391 13.0273 31.4844 13.0273C36.9941 13.0273 40.6875 15.293 42.6855 17.1055L50.3145 10.3652C45.4707 6.11719 39.1133 3.56836 31.4844 3.56836C15.9844 3.56836 3.39062 14.9531 3.39062 29.2832C3.39062 43.5 15.9844 54.9414 31.4844 54.9414C47.832 54.9414 58.4277 44.4629 58.4277 29.9062C58.4277 28.2637 58.3066 26.9609 58.0645 25.6582H31.4844Z" fill="black"/>
</svg>
