<svg width="52" height="60" viewBox="0 0 52 60" fill="none" xmlns="http://www.w3.org/2000/svg">
<path d="M35.0654 10.1374C36.231 8.86656 37.1198 7.39042 37.6807 5.79373C38.2416 4.19705 38.4635 2.51129 38.3337 0.833252C34.7551 1.10651 31.4332 2.69862 29.0837 5.26658C27.9586 6.49735 27.106 7.92915 26.5764 9.47721C26.0468 11.0253 25.8509 12.6581 26.0004 14.2791C27.746 14.2928 29.4716 13.9264 31.0435 13.2083C32.6154 12.4901 33.9916 11.4393 35.0654 10.1374ZM42.8354 31.8374C42.8561 29.6025 43.4784 27.4094 44.6437 25.4651C45.8089 23.5208 47.4787 21.8894 49.4954 20.7249C48.2227 18.9902 46.5402 17.5598 44.5813 16.5473C42.6225 15.5348 40.4412 14.9679 38.2104 14.8916C33.4004 14.4249 28.9604 17.5458 26.4012 17.5458C23.8421 17.5458 20.2346 14.9499 16.2262 15.0083C13.6058 15.0899 11.0525 15.8126 8.81528 17.1059C6.57809 18.3991 4.73344 20.2188 3.46123 22.3874C-1.96543 31.3124 2.07373 44.5832 7.5004 51.7874C9.96706 55.3166 13.0504 59.3124 17.1204 59.1666C21.1904 59.0207 22.5162 56.7749 27.2337 56.7749C31.9512 56.7749 33.4004 59.1666 37.4087 59.0791C41.4171 58.9916 44.2537 55.4624 46.8437 51.9333C48.6784 49.371 50.1116 46.5712 51.0987 43.6208C48.6551 42.635 46.5703 40.9937 45.1018 38.8996C43.6332 36.8055 42.8453 34.3503 42.8354 31.8374Z" fill="black"/>
</svg>
